<svg width="120" height="20" viewBox="0 0 120 20" fill="none" xmlns="http://www.w3.org/2000/svg">
<path d="M21.1281 4.12281C20.6753 3.17391 19.3246 3.17391 18.8718 4.12281L17.4823 7.03482L14.2834 7.45649C13.241 7.5939 12.8237 8.87849 13.5862 9.60235L15.9263 11.8237L15.3388 14.9964C15.1474 16.0302 16.2401 16.8241 17.1642 16.3226L20 14.7835L22.8358 16.3226C23.7599 16.8241 24.8526 16.0302 24.6612 14.9964L24.0737 11.8237L26.4138 9.60235C27.1763 8.87849 26.7589 7.5939 25.7166 7.45649L22.5177 7.03482L21.1281 4.12281Z" fill="#F2C94C"/>
<path d="M41.1281 4.12281C40.6753 3.17391 39.3246 3.17391 38.8718 4.12281L37.4823 7.03482L34.2834 7.45649C33.241 7.5939 32.8237 8.87849 33.5862 9.60235L35.9263 11.8237L35.3388 14.9964C35.1474 16.0302 36.2401 16.8241 37.1642 16.3226L40 14.7835L42.8358 16.3226C43.7599 16.8241 44.8526 16.0302 44.6612 14.9964L44.0737 11.8237L46.4138 9.60235C47.1763 8.87849 46.7589 7.5939 45.7166 7.45649L42.5177 7.03482L41.1281 4.12281Z" fill="#F2C94C"/>
<path d="M61.1281 4.12281C60.6753 3.17391 59.3246 3.17391 58.8718 4.12281L57.4823 7.03482L54.2834 7.45649C53.241 7.5939 52.8237 8.87849 53.5862 9.60235L55.9263 11.8237L55.3388 14.9964C55.1474 16.0302 56.2401 16.8241 57.1642 16.3226L60 14.7835L62.8358 16.3226C63.7599 16.8241 64.8526 16.0302 64.6612 14.9964L64.0737 11.8237L66.4138 9.60235C67.1763 8.87849 66.7589 7.5939 65.7166 7.45649L62.5177 7.03482L61.1281 4.12281Z" fill="#F2C94C"/>
<path d="M81.1281 4.12281C80.6753 3.17391 79.3246 3.17391 78.8718 4.12281L77.4823 7.03482L74.2834 7.45649C73.241 7.5939 72.8237 8.87849 73.5862 9.60235L75.9263 11.8237L75.3388 14.9964C75.1474 16.0302 76.2401 16.8241 77.1642 16.3226L80 14.7835L82.8358 16.3226C83.7599 16.8241 84.8526 16.0302 84.6612 14.9964L84.0737 11.8237L86.4138 9.60235C87.1763 8.87849 86.7589 7.5939 85.7166 7.45649L82.5177 7.03482L81.1281 4.12281Z" fill="#F2C94C"/>
<path d="M101.128 4.12281C100.675 3.17391 99.3246 3.17391 98.8718 4.12281L97.4823 7.03482L94.2834 7.45649C93.241 7.5939 92.8237 8.87849 93.5862 9.60235L95.9263 11.8237L95.3388 14.9964C95.1474 16.0302 96.2401 16.8241 97.1642 16.3226L100 14.7835L102.836 16.3226C103.76 16.8241 104.853 16.0302 104.661 14.9964L104.074 11.8237L106.414 9.60235C107.176 8.87849 106.759 7.5939 105.717 7.45649L102.518 7.03482L101.128 4.12281Z" fill="#F2C94C"/>
</svg>
