<svg width="110" height="37" viewBox="0 0 110 37" fill="none" xmlns="http://www.w3.org/2000/svg">
<g clip-path="url(#clip0_1_92)">
<path d="M20.4545 36.2905C17.7593 36.2612 15.4508 35.2079 13.5387 33.5573C9.76978 30.2998 7.54781 24.7139 6.98811 20.0594C6.05608 12.323 14.2426 8.09272 20.8292 10.0238C23.5028 10.8089 25.4894 12.6229 26.3805 15.0318C26.7817 16.1144 26.9595 17.3164 26.8778 18.6014C26.7241 21.0396 24.7711 23.1583 24.9441 25.6136C25.0546 27.1765 26.3205 27.9128 26.8994 29.2417C28.7202 33.4134 23.9448 36.3295 20.4569 36.2905H20.4545Z" fill="#FF6363"/>
<path d="M20.5193 36.5001C20.4953 36.5001 20.4737 36.5001 20.4496 36.5001C17.8794 36.4708 15.5109 35.5346 13.4042 33.7181C9.30373 30.173 7.27393 24.1604 6.78149 20.0862C6.40436 16.9604 7.48772 14.1248 9.8274 12.1011C12.722 9.59946 17.0602 8.70464 20.8796 9.82621C23.5796 10.6186 25.6527 12.4912 26.5655 14.9611C26.9859 16.0948 27.1564 17.3261 27.0747 18.6159C27.0003 19.7741 26.5367 20.8615 26.0851 21.9124C25.5542 23.1534 25.0521 24.3262 25.141 25.5989C25.2035 26.4913 25.6743 27.1009 26.1739 27.747C26.503 28.1737 26.8441 28.615 27.0795 29.1563C27.7209 30.6265 27.6224 32.0772 26.7913 33.3573C25.4485 35.4273 22.6332 36.4977 20.5145 36.4977L20.5193 36.5001ZM17.5118 9.76282C14.7854 9.76282 12.0854 10.6942 10.094 12.4156C7.86005 14.3466 6.82954 17.053 7.18745 20.035C7.67028 24.0336 9.65685 29.934 13.6684 33.4012C15.7006 35.1542 17.9826 36.0588 20.4544 36.0856C22.4218 36.11 25.1891 35.0786 26.4526 33.133C27.202 31.9772 27.2909 30.6631 26.7072 29.3294C26.491 28.8368 26.1667 28.415 25.852 28.0079C25.338 27.3398 24.8047 26.6522 24.7326 25.6331C24.6366 24.2579 25.1818 22.9827 25.7103 21.7514C26.1475 20.7323 26.5967 19.679 26.6664 18.594C26.7456 17.3627 26.5823 16.1899 26.1835 15.1098C25.3164 12.7618 23.3442 10.9844 20.7667 10.2285C19.7074 9.91887 18.6072 9.7677 17.5094 9.7677L17.5118 9.76282Z" fill="#330211"/>
<path d="M14.3868 14.927C11.903 14.7027 11.2784 17.6309 12.3378 19.4181C13.6301 21.5979 16.2172 23.5899 18.5617 24.336C18.6458 24.3628 18.7322 24.3896 18.8187 24.3823C18.9412 24.3701 19.0445 24.2945 19.143 24.2214C20.6612 23.0754 22.0136 21.6418 22.5877 19.7448C23.0056 18.5916 22.9792 16.9385 21.8694 16.1875C20.3993 15.1952 18.8211 16.7288 18.3863 18.0966C18.2134 17.3969 17.6201 16.9019 17.1757 16.3631C16.5703 15.6292 15.4485 15.0269 14.3868 14.9294V14.927Z" fill="#FCDBD4"/>
<path d="M18.7875 24.5894C18.6794 24.5894 18.5809 24.5577 18.5016 24.5334C16.0586 23.7531 13.4523 21.6953 12.1648 19.5229C11.497 18.3964 11.4682 16.836 12.0975 15.8144C12.5875 15.0171 13.4091 14.6294 14.406 14.7196C15.4941 14.8171 16.6712 15.4243 17.3342 16.2264C17.4375 16.3508 17.548 16.4751 17.6609 16.597C17.9275 16.8921 18.2013 17.192 18.3911 17.5455C18.7466 16.8262 19.3928 16.0704 20.2167 15.7802C20.8269 15.5632 21.4394 15.6437 21.9847 16.0119C23.1858 16.8213 23.241 18.55 22.7822 19.813C22.2778 21.4807 21.1247 22.9802 19.2679 24.3846C19.1646 24.4627 19.0229 24.5699 18.8403 24.587C18.8235 24.587 18.8067 24.587 18.7899 24.587L18.7875 24.5894ZM14.1201 15.1219C13.2073 15.1219 12.7053 15.6071 12.4434 16.0362C11.8909 16.9335 11.9222 18.3111 12.5155 19.3107C13.7574 21.4027 16.27 23.3874 18.6265 24.1384C18.6914 24.1579 18.7562 24.1798 18.8043 24.175C18.8715 24.1701 18.9532 24.1067 19.0253 24.053C20.8125 22.7023 21.915 21.2735 22.3979 19.6814C22.8182 18.5208 22.7318 17.014 21.7613 16.3581C21.3193 16.0606 20.8461 15.9972 20.3537 16.1728C19.4745 16.4849 18.8211 17.4211 18.5857 18.1599C18.5569 18.2477 18.48 18.3038 18.3839 18.3038C18.2926 18.3013 18.2133 18.2355 18.1917 18.1477C18.0716 17.665 17.7113 17.2675 17.363 16.8823C17.2453 16.7531 17.13 16.6263 17.0243 16.4971C16.4358 15.7851 15.3476 15.2243 14.3747 15.1365C14.2883 15.1292 14.2042 15.1244 14.1249 15.1244L14.1201 15.1219Z" fill="#330211"/>
<g style="mix-blend-mode:multiply" opacity="0.5">
<path d="M20.4544 36.2904C17.7592 36.2611 15.4508 35.2078 13.5387 33.5572C14.1705 33.6474 14.807 33.7132 15.4364 33.7693C18.0379 33.9912 21.0358 33.8766 22.7317 31.8577C23.4115 31.0507 23.7814 29.8194 23.2145 28.927C23.0151 28.6125 22.7221 28.3736 22.4842 28.0883C21.4225 26.8107 21.6795 24.8479 22.4482 23.3704C23.2193 21.8953 24.4156 20.6859 25.2275 19.2328C25.9433 17.9551 26.3301 16.4995 26.3781 15.0317C26.7793 16.1143 26.957 17.3163 26.8754 18.6013C26.7216 21.0395 24.7687 23.1583 24.9416 25.6135C25.0521 27.1764 26.3181 27.9127 26.897 29.2416C28.7178 33.4133 23.9423 36.3294 20.4544 36.2904Z" fill="#FF6363"/>
</g>
<path d="M24.7351 7.08813C24.0289 7.98539 22.7533 8.48522 21.5042 8.49985C20.517 8.5096 19.5441 8.21458 18.8907 7.56846C18.8186 7.49531 18.749 7.41972 18.6865 7.3417C17.2837 5.64715 17.7209 2.48969 19.6882 1.47296C21.019 0.785387 22.7606 1.16331 24.0457 2.34583C24.0625 2.36046 24.0769 2.37509 24.0937 2.39216C25.6359 3.84045 25.8977 5.6179 24.7375 7.08813H24.7351Z" fill="#FF6363"/>
<path d="M21.4514 8.7072C20.3536 8.7072 19.3952 8.3561 18.7466 7.71486C18.6601 7.62708 18.5881 7.54906 18.5256 7.47104C17.781 6.57134 17.4903 5.2474 17.7521 3.93565C17.9923 2.73362 18.6625 1.76809 19.5922 1.28777C20.9734 0.573374 22.8158 0.936666 24.1802 2.19234C24.1995 2.20941 24.2163 2.22647 24.2355 2.24598C25.8569 3.76741 26.1116 5.67652 24.8961 7.2199C24.1851 8.12447 22.8855 8.69501 21.5067 8.70964C21.4875 8.70964 21.4706 8.70964 21.4514 8.70964V8.7072ZM21.1343 1.33897C20.6563 1.33897 20.1927 1.44381 19.7795 1.65593C18.9628 2.07774 18.3695 2.93843 18.1533 4.01611C17.9179 5.18888 18.1821 6.41042 18.8403 7.20527C18.8955 7.27354 18.9556 7.34181 19.0325 7.4174C19.6042 7.98306 20.5098 8.30734 21.5019 8.29027C22.7606 8.27808 23.94 7.76606 24.5766 6.95658C25.6624 5.579 25.4294 3.92833 23.952 2.541C23.9328 2.52149 23.9184 2.5093 23.9064 2.49711C23.0849 1.74127 22.0784 1.33653 21.1343 1.33653V1.33897Z" fill="#330211"/>
<path d="M9.77942 9.47744C9.38066 10.3576 8.49908 10.9062 7.59347 11.1232C7.31483 11.1915 7.02657 11.2305 6.73591 11.2403C6.29151 11.2598 5.83511 11.2208 5.39071 11.1257C4.85264 11.0159 4.33377 10.8306 3.86296 10.5917C2.23431 9.76027 1.91002 7.65367 2.76278 6.1176C3.48822 4.80341 4.61482 4.35722 5.87595 4.50839C6.22425 4.5474 6.58698 4.63518 6.9497 4.7644C8.70806 5.38614 10.6874 7.47812 9.77942 9.47744Z" fill="#FF6363"/>
<path d="M6.50774 11.4524C6.1306 11.4524 5.74146 11.411 5.34991 11.3281C4.80222 11.2159 4.27135 11.0306 3.77171 10.7746C3.03665 10.3991 2.49858 9.74324 2.25116 8.92645C1.97011 7.98774 2.09261 6.9003 2.58505 6.0128C3.30089 4.71568 4.44911 4.12319 5.9 4.29874C6.25792 4.34019 6.63505 4.42797 7.01699 4.56451C8.08114 4.93999 9.40471 5.91527 9.96441 7.2514C10.2935 8.03894 10.2959 8.83867 9.96441 9.56038C9.57527 10.4186 8.72731 11.0599 7.64155 11.3208C7.35569 11.389 7.05543 11.4329 6.74555 11.4451C6.66628 11.45 6.58941 11.45 6.50774 11.45V11.4524ZM5.40756 4.68642C4.3314 4.68642 3.50507 5.20088 2.94057 6.21761C2.50338 7.00758 2.39288 7.97555 2.6427 8.80697C2.8589 9.52624 3.3129 10.0773 3.95427 10.4064C4.42028 10.6454 4.91753 10.8185 5.43158 10.9233C5.87117 11.016 6.30836 11.0526 6.72633 11.033C7.00979 11.0209 7.28603 10.9843 7.54546 10.9209C8.49671 10.6917 9.26059 10.1212 9.59208 9.3897C9.87553 8.76552 9.87313 8.10233 9.58487 7.41476C9.15009 6.37609 8.0379 5.36668 6.88007 4.95706C6.52455 4.83271 6.17865 4.74981 5.84955 4.7108C5.69582 4.69129 5.54929 4.68398 5.40516 4.68398L5.40756 4.68642Z" fill="#330211"/>
<path d="M15.3811 3.46493C15.3811 5.05951 14.305 6.34688 12.9598 6.34932C12.3736 6.34932 11.8644 6.15182 11.4512 5.82511C10.6705 5.21312 10.2237 4.15006 10.2021 3.15528C10.1781 1.94837 10.781 0.834113 12.1839 0.717079C12.8108 0.665877 13.4618 0.846304 14.0119 1.19009C14.8022 1.68261 15.3811 2.51159 15.3835 3.46737L15.3811 3.46493Z" fill="#FF6363"/>
<path d="M12.9526 6.55658C12.3593 6.55658 11.7972 6.35909 11.324 5.98848C10.5289 5.36187 10.0196 4.27931 9.99558 3.15773C9.96435 1.66068 10.8171 0.622008 12.1647 0.507413C12.8181 0.453773 13.5123 0.631761 14.1152 1.00968C15.0329 1.58266 15.5829 2.49942 15.5829 3.46251C15.5829 5.16437 14.4059 6.55171 12.9574 6.55415H12.9502L12.9526 6.55658ZM12.3977 0.914592C12.3305 0.914592 12.2656 0.917031 12.1983 0.921907C10.8435 1.0365 10.3823 2.14832 10.4039 3.15042C10.4232 4.13301 10.8844 5.11805 11.5738 5.65933C11.9797 5.97873 12.4434 6.13965 12.9502 6.13965C14.1801 6.13721 15.177 4.93762 15.1746 3.46251C15.1746 2.64571 14.6966 1.85818 13.9015 1.36322C13.433 1.0682 12.9046 0.912154 12.3977 0.912154V0.914592Z" fill="#330211"/>
<path d="M5.04477 15.2075C5.05678 15.9999 4.49468 16.7167 3.60829 17.0361C3.28881 17.1507 2.96452 17.1775 2.64984 17.1288C1.82831 17.0093 1.09566 16.3875 0.821817 15.5659C0.367813 14.1932 1.29023 12.4547 2.87084 12.9253C3.04139 12.9765 3.20474 13.0375 3.36328 13.1106C4.32893 13.5617 5.03036 14.4102 5.04477 15.2099V15.2075Z" fill="#FF6363"/>
<path d="M2.95489 17.3579C2.84439 17.3579 2.73149 17.3481 2.61859 17.331C1.7226 17.2018 0.922686 16.5167 0.627224 15.6292C0.343772 14.7734 0.540747 13.7883 1.11966 13.1788C1.59288 12.679 2.23425 12.518 2.92847 12.7228C3.10863 12.7765 3.28398 12.8423 3.44973 12.9203C4.51148 13.4153 5.23452 14.3345 5.24893 15.2049C5.26334 16.0876 4.646 16.8824 3.67553 17.2311C3.44012 17.3164 3.19991 17.3579 2.95489 17.3579ZM2.35436 13.0496C1.91477 13.0496 1.6097 13.2593 1.41512 13.4665C0.946707 13.959 0.783362 14.7953 1.01637 15.4975C1.26379 16.2387 1.93158 16.8117 2.68105 16.9214C2.97651 16.9678 3.26477 16.9409 3.54101 16.8385C4.34333 16.5508 4.85258 15.9096 4.84297 15.2098C4.83096 14.5052 4.18959 13.7201 3.28158 13.2958C3.13505 13.2276 2.97891 13.1666 2.81797 13.1203C2.64982 13.0715 2.49849 13.0496 2.35916 13.0496H2.35436Z" fill="#330211"/>
<g style="mix-blend-mode:multiply" opacity="0.5">
<path d="M5.04483 15.2074C5.05684 15.9999 4.49474 16.7167 3.60835 17.0361C3.28887 17.1507 2.96458 17.1775 2.6499 17.1287C2.85168 16.3729 3.45942 15.8048 3.56752 14.9758C3.59634 14.7613 3.5459 13.786 3.36334 13.1106C4.32899 13.5617 5.03042 14.4102 5.04483 15.2099V15.2074Z" fill="#FF6363"/>
</g>
<g style="mix-blend-mode:multiply" opacity="0.5">
<path d="M9.77945 9.47759C9.38069 10.3578 8.49911 10.9064 7.59351 11.1234C7.31486 11.1916 7.0266 11.2307 6.73594 11.2404C6.29155 11.2599 5.83514 11.2209 5.39075 11.1258C5.44359 11.06 5.53247 10.982 5.64778 10.8698C6.32998 10.2017 7.21397 10.1505 7.42055 8.99971C7.52865 8.39747 7.33648 7.78305 7.14671 7.20275C6.83923 6.25673 6.49093 5.25707 5.87358 4.50854C6.22189 4.54756 6.58461 4.63533 6.94733 4.76456C8.70569 5.3863 10.6851 7.47827 9.77705 9.47759H9.77945Z" fill="#FF6363"/>
</g>
<g style="mix-blend-mode:multiply" opacity="0.5">
<path d="M15.3812 3.46502C15.3812 5.05961 14.305 6.34698 12.9598 6.34941C12.3737 6.34941 11.8645 6.15192 11.4513 5.8252C12.5226 5.24491 13.6156 4.62805 13.9928 3.34799C14.1969 2.6531 14.1201 1.91189 14.012 1.19019C14.8023 1.6827 15.3812 2.51169 15.3836 3.46746L15.3812 3.46502Z" fill="#FF6363"/>
</g>
<g style="mix-blend-mode:multiply" opacity="0.5">
<path d="M24.543 6.93938C23.8367 7.83664 22.5612 8.33647 21.3121 8.3511C20.3248 8.36085 19.3519 8.06583 18.6986 7.41971C18.6265 7.34656 18.5568 7.27098 18.4944 7.19296C18.6938 7.21002 18.8907 7.22465 19.0901 7.23684C19.7171 7.27342 20.356 7.28561 20.9614 7.12225C22.5972 6.68093 23.6974 4.98638 23.8487 3.27965C23.88 2.94074 23.88 2.58964 23.8992 2.24585C25.4414 3.69414 25.7032 5.47159 24.543 6.94182V6.93938Z" fill="#FF6363"/>
</g>
<path d="M12.9142 36.1515C12.8734 36.1515 12.8301 36.1393 12.7941 36.1124C9.13805 33.4499 6.45246 29.3708 5.42675 24.926C5.40033 24.8138 5.46999 24.7017 5.57809 24.6773C5.68858 24.6529 5.79908 24.7212 5.8231 24.8309C6.8272 29.1807 9.45513 33.1695 13.0295 35.776C13.1208 35.8418 13.1424 35.9735 13.0752 36.0661C13.0343 36.1222 12.9719 36.1515 12.9094 36.1515H12.9142Z" fill="#330211"/>
<path d="M25.9506 8.4463C25.8978 8.4463 25.8425 8.42436 25.8041 8.38291C25.7248 8.30001 25.7272 8.16834 25.8089 8.09032C26.652 7.26377 27.0508 6.23973 26.9571 5.12791C26.8514 3.8503 26.2413 3.07495 25.4702 2.09235L25.3165 1.89486C25.2468 1.80465 25.2612 1.67542 25.3501 1.60228C25.439 1.53157 25.5663 1.5462 25.6383 1.63641L25.7921 1.83391C26.5752 2.83113 27.2502 3.69181 27.3655 5.09378C27.4664 6.31531 27.0148 7.48565 26.0924 8.39022C26.0515 8.42923 26.0011 8.44874 25.9506 8.44874V8.4463Z" fill="#330211"/>
</g>
<path d="M42.444 10.956C45.532 10.956 47.076 12.1 47.076 14.388C47.076 14.884 46.972 15.34 46.764 15.756C46.572 16.156 46.348 16.476 46.092 16.716C45.836 16.94 45.548 17.132 45.228 17.292C44.732 17.532 44.34 17.676 44.052 17.724C44.388 17.804 44.772 17.964 45.204 18.204C45.652 18.428 46.012 18.668 46.284 18.924C46.556 19.164 46.796 19.508 47.004 19.956C47.228 20.388 47.34 20.868 47.34 21.396C47.34 22.852 46.804 23.9 45.732 24.54C44.66 25.18 42.956 25.5 40.62 25.5H33.324L32.1 10.956H42.444ZM39.972 19.524H38.82L38.46 23.076H39.348C40.004 23.076 40.532 22.9 40.932 22.548C41.332 22.196 41.532 21.732 41.532 21.156C41.532 20.58 41.38 20.164 41.076 19.908C40.772 19.652 40.404 19.524 39.972 19.524ZM39.756 16.74C40.316 16.74 40.788 16.58 41.172 16.26C41.556 15.94 41.748 15.516 41.748 14.988C41.748 13.948 41.148 13.428 39.948 13.428H39.42L39.084 16.74H39.756ZM59.4525 25.5L58.4925 23.076H52.3725L51.4605 25.5H48.0525L52.1085 10.956H60.6525L64.7085 25.5H59.4525ZM57.2685 19.956L55.3725 15.156L53.5485 19.956H57.2685ZM69.4686 25.5L68.8446 19.284L63.7566 10.956H69.6606L71.8206 15.924L73.9566 10.956H79.8606L74.7726 19.284L74.1486 25.5H69.4686ZM90.0924 10.956C93.1804 10.956 94.7244 12.1 94.7244 14.388C94.7244 14.884 94.6204 15.34 94.4124 15.756C94.2204 16.156 93.9964 16.476 93.7404 16.716C93.4844 16.94 93.1964 17.132 92.8764 17.292C92.3804 17.532 91.9884 17.676 91.7004 17.724C92.0364 17.804 92.4204 17.964 92.8524 18.204C93.3004 18.428 93.6604 18.668 93.9324 18.924C94.2044 19.164 94.4444 19.508 94.6524 19.956C94.8764 20.388 94.9884 20.868 94.9884 21.396C94.9884 22.852 94.4524 23.9 93.3804 24.54C92.3084 25.18 90.6044 25.5 88.2684 25.5H80.9724L79.7484 10.956H90.0924ZM87.6204 19.524H86.4684L86.1084 23.076H86.9964C87.6524 23.076 88.1804 22.9 88.5804 22.548C88.9804 22.196 89.1804 21.732 89.1804 21.156C89.1804 20.58 89.0284 20.164 88.7244 19.908C88.4204 19.652 88.0524 19.524 87.6204 19.524ZM87.4044 16.74C87.9644 16.74 88.4364 16.58 88.8204 16.26C89.2044 15.94 89.3964 15.516 89.3964 14.988C89.3964 13.948 88.7964 13.428 87.5964 13.428H87.0684L86.7324 16.74H87.4044ZM103.237 19.908C103.237 20.884 103.397 21.548 103.717 21.9C104.037 22.236 104.437 22.404 104.917 22.404C105.669 22.404 106.429 22.276 107.197 22.02L107.557 21.9L108.589 23.964C108.445 24.092 108.229 24.26 107.941 24.468C107.653 24.66 107.005 24.924 105.997 25.26C105.005 25.58 103.973 25.74 102.901 25.74C101.845 25.74 100.957 25.588 100.237 25.284C99.5169 24.98 98.9649 24.628 98.5809 24.228C98.1969 23.812 97.8849 23.268 97.6449 22.596C97.4049 21.908 97.2449 21.324 97.1649 20.844C97.1009 20.364 97.0449 19.764 96.9969 19.044L96.4209 10.956H107.221L107.893 13.836L103.813 14.196L103.573 16.524H106.789L107.269 18.78L103.237 19.788V19.908Z" fill="#FF6363"/>
<defs>
<clipPath id="clip0_1_92">
<rect width="27" height="36" fill="white" transform="translate(0.5 0.5)"/>
</clipPath>
</defs>
</svg>
