<svg width="12" height="11" viewBox="0 0 12 11" fill="none" xmlns="http://www.w3.org/2000/svg">
<path fill-rule="evenodd" clip-rule="evenodd" d="M7.85787 8.20669C7.11941 8.76733 6.19844 9.10005 5.19976 9.10005C2.76971 9.10005 0.799759 7.1301 0.799759 4.70005C0.799759 2.27 2.76971 0.300049 5.19976 0.300049C7.62981 0.300049 9.59976 2.27 9.59976 4.70005C9.59976 5.69873 9.26704 6.6197 8.7064 7.35816L11.024 9.67578C11.2583 9.9101 11.2583 10.29 11.024 10.5243C10.7897 10.7586 10.4098 10.7586 10.1755 10.5243L7.85787 8.20669ZM8.39976 4.70005C8.39976 6.46736 6.96707 7.90005 5.19976 7.90005C3.43245 7.90005 1.99976 6.46736 1.99976 4.70005C1.99976 2.93274 3.43245 1.50005 5.19976 1.50005C6.96707 1.50005 8.39976 2.93274 8.39976 4.70005Z" fill="#F2F2F2"/>
</svg>
