<svg width="20" height="21" viewBox="0 0 20 21" fill="none" xmlns="http://www.w3.org/2000/svg">
<g clip-path="url(#clip0_1_132)">
<path d="M1.45806 3.00006C1.37524 2.99889 1.29301 3.01419 1.21616 3.04508C1.1393 3.07596 1.06935 3.12181 1.01037 3.17996C0.951389 3.23812 0.904554 3.30741 0.872587 3.38382C0.84062 3.46023 0.824158 3.54223 0.824158 3.62506C0.824158 3.70789 0.84062 3.78989 0.872587 3.8663C0.904554 3.94271 0.951389 4.01201 1.01037 4.07016C1.06935 4.12832 1.1393 4.17417 1.21616 4.20505C1.29301 4.23593 1.37524 4.25123 1.45806 4.25006H2.60633C2.90964 4.25006 3.16247 4.45961 3.21994 4.75787L3.34445 5.40892L4.68804 12.4654C4.931 13.7385 6.0527 14.6667 7.34917 14.6667H15.1503C16.4468 14.6667 17.5689 13.7389 17.8114 12.4654L19.155 5.40892C19.1722 5.31857 19.1693 5.22553 19.1465 5.13644C19.1236 5.04735 19.0814 4.9644 19.0227 4.89351C18.9641 4.82262 18.8906 4.76554 18.8074 4.72634C18.7242 4.68714 18.6334 4.66679 18.5414 4.66673H4.47482L4.44797 4.52431C4.28 3.64403 3.50263 3.00006 2.60633 3.00006H1.45806ZM4.71327 5.91673H17.7862L16.5834 12.2318C16.4517 12.9233 15.8546 13.4167 15.1503 13.4167H7.34917C6.64506 13.4167 6.04838 12.9233 5.91607 12.2318V12.231L4.71327 5.91673ZM8.33306 15.5001C8.00154 15.5001 7.6836 15.6318 7.44918 15.8662C7.21476 16.1006 7.08306 16.4185 7.08306 16.7501C7.08306 17.0816 7.21476 17.3995 7.44918 17.6339C7.6836 17.8684 8.00154 18.0001 8.33306 18.0001C8.66458 18.0001 8.98252 17.8684 9.21694 17.6339C9.45136 17.3995 9.58306 17.0816 9.58306 16.7501C9.58306 16.4185 9.45136 16.1006 9.21694 15.8662C8.98252 15.6318 8.66458 15.5001 8.33306 15.5001ZM14.1664 15.5001C13.8349 15.5001 13.5169 15.6318 13.2825 15.8662C13.0481 16.1006 12.9164 16.4185 12.9164 16.7501C12.9164 17.0816 13.0481 17.3995 13.2825 17.6339C13.5169 17.8684 13.8349 18.0001 14.1664 18.0001C14.4979 18.0001 14.8159 17.8684 15.0503 17.6339C15.2847 17.3995 15.4164 17.0816 15.4164 16.7501C15.4164 16.4185 15.2847 16.1006 15.0503 15.8662C14.8159 15.6318 14.4979 15.5001 14.1664 15.5001Z" fill="#575454"/>
</g>
<defs>
<clipPath id="clip0_1_132">
<rect width="20" height="20" fill="white" transform="translate(-0.000244141 0.5)"/>
</clipPath>
</defs>
</svg>
