<svg width="20" height="21" viewBox="0 0 20 21" fill="none" xmlns="http://www.w3.org/2000/svg">
<path d="M9.99974 2.16675C7.70595 2.16675 5.83307 4.03963 5.83307 6.33341C5.83307 8.6272 7.70595 10.5001 9.99974 10.5001C12.2935 10.5001 14.1664 8.6272 14.1664 6.33341C14.1664 4.03963 12.2935 2.16675 9.99974 2.16675ZM9.99974 3.41675C11.618 3.41675 12.9164 4.71518 12.9164 6.33341C12.9164 7.95165 11.618 9.25008 9.99974 9.25008C8.3815 9.25008 7.08307 7.95165 7.08307 6.33341C7.08307 4.71518 8.3815 3.41675 9.99974 3.41675ZM4.99078 12.1667C4.08253 12.1667 3.33307 12.9162 3.33307 13.8245V14.4584C3.33307 15.9602 4.28276 17.1218 5.54417 17.8178C6.80557 18.5137 8.40311 18.8334 9.99974 18.8334C11.5964 18.8334 13.1939 18.5137 14.4553 17.8178C15.5308 17.2244 16.3403 16.2762 16.5671 15.0834H16.6672V13.8245C16.6672 12.9162 15.9169 12.1667 15.0087 12.1667H4.99078ZM4.99078 13.4167H15.0087C15.2413 13.4167 15.4172 13.5919 15.4172 13.8245V13.8334H15.4164V14.4584C15.4164 15.4567 14.8557 16.17 13.8515 16.724C12.8472 17.2781 11.4239 17.5834 9.99974 17.5834C8.57553 17.5834 7.15223 17.2781 6.14801 16.724C5.14379 16.17 4.58307 15.4567 4.58307 14.4584V13.8245C4.58307 13.5919 4.7582 13.4167 4.99078 13.4167Z" fill="#575454"/>
</svg>
