<svg width="34" height="35" viewBox="0 0 34 35" fill="none" xmlns="http://www.w3.org/2000/svg">
<path d="M17 0.833374C11.5519 0.833374 6.70904 3.4594 3.66665 7.51306V5.41671C3.66905 5.2494 3.63784 5.08332 3.57487 4.9283C3.5119 4.77328 3.41845 4.63248 3.30006 4.51424C3.18167 4.396 3.04074 4.30273 2.88564 4.23996C2.73054 4.17719 2.56442 4.14619 2.39712 4.1488C2.06588 4.15398 1.75024 4.29042 1.51953 4.52815C1.28882 4.76588 1.1619 5.08546 1.16665 5.41671V10.4167C1.16668 10.7482 1.29839 11.0661 1.5328 11.3006C1.76722 11.535 2.08514 11.6667 2.41665 11.6667H7.41665C7.58229 11.6691 7.74674 11.6384 7.90045 11.5767C8.05416 11.5149 8.19406 11.4232 8.31203 11.3069C8.42999 11.1906 8.52366 11.052 8.58759 10.8992C8.65153 10.7464 8.68445 10.5824 8.68445 10.4167C8.68445 10.2511 8.65153 10.087 8.58759 9.93423C8.52366 9.7814 8.42999 9.64281 8.31203 9.52651C8.19406 9.4102 8.05416 9.3185 7.90045 9.25673C7.74674 9.19497 7.58229 9.16437 7.41665 9.16671H5.54653C8.1206 5.63356 12.2835 3.33337 17 3.33337C24.8386 3.33337 31.1666 9.66146 31.1666 17.5C31.1666 25.2021 25.0545 31.444 17.4085 31.6602C17.2444 31.6649 17.0827 31.7019 16.9329 31.7691C16.783 31.8362 16.6479 31.9322 16.5351 32.0516C16.4224 32.171 16.3342 32.3115 16.2758 32.4649C16.2173 32.6184 16.1896 32.7819 16.1943 32.946C16.199 33.1102 16.236 33.2718 16.3032 33.4216C16.3703 33.5715 16.4664 33.7067 16.5858 33.8194C16.7052 33.9322 16.8456 34.0203 16.999 34.0788C17.1525 34.1372 17.316 34.1649 17.4801 34.1602C26.4525 33.9064 33.6666 26.5296 33.6666 17.5C33.6666 8.31028 26.1897 0.833374 17 0.833374ZM16.5638 6.6488C16.2325 6.65398 15.9169 6.79042 15.6862 7.02815C15.4555 7.26588 15.3286 7.58546 15.3333 7.91671V8.87699C13.0065 9.19866 11.1666 11.1314 11.1666 13.5417C11.1666 16.1732 13.3268 18.3334 15.9583 18.3334H17.625C19.1351 18.3334 20.3333 19.5316 20.3333 21.0417C20.3333 22.5518 19.1351 23.75 17.625 23.75H15.75C14.7685 23.75 13.9658 23.0863 13.7334 22.1941C13.6958 22.0313 13.6259 21.8777 13.5279 21.7424C13.4299 21.607 13.3058 21.4927 13.1629 21.4062C13.0199 21.3196 12.8611 21.2626 12.6958 21.2385C12.5305 21.2144 12.362 21.2237 12.2003 21.2658C12.0386 21.3079 11.887 21.382 11.7545 21.4837C11.6219 21.5854 11.5111 21.7126 11.4285 21.8579C11.3459 22.0031 11.2934 22.1635 11.2738 22.3294C11.2543 22.4953 11.2682 22.6635 11.3148 22.8239C11.7937 24.6626 13.4053 25.9982 15.3333 26.1801V27.0834C15.331 27.249 15.3616 27.4135 15.4233 27.5672C15.4851 27.7209 15.5768 27.8608 15.6931 27.9788C15.8094 28.0967 15.948 28.1904 16.1008 28.2543C16.2537 28.3183 16.4177 28.3512 16.5833 28.3512C16.749 28.3512 16.913 28.3183 17.0658 28.2543C17.2186 28.1904 17.3572 28.0967 17.4735 27.9788C17.5898 27.8608 17.6815 27.7209 17.7433 27.5672C17.8051 27.4135 17.8357 27.249 17.8333 27.0834V26.2077C20.5942 26.0911 22.8333 23.8296 22.8333 21.0417C22.8333 18.1801 20.4866 15.8334 17.625 15.8334H15.9583C14.6782 15.8334 13.6666 14.8219 13.6666 13.5417C13.6666 12.2616 14.6782 11.25 15.9583 11.25H16.3782C16.5124 11.2721 16.6493 11.2721 16.7835 11.25H17.4166C18.3909 11.25 19.1899 11.9057 19.4284 12.7881C19.4712 12.9466 19.5448 13.0952 19.6451 13.2252C19.7453 13.3553 19.8702 13.4643 20.0126 13.5461C20.1549 13.6279 20.312 13.6808 20.4749 13.7019C20.6377 13.723 20.8031 13.7118 20.9616 13.6689C21.1201 13.626 21.2687 13.5524 21.3987 13.4521C21.5287 13.3519 21.6377 13.227 21.7195 13.0846C21.8013 12.9422 21.8542 12.7851 21.8752 12.6222C21.8962 12.4594 21.885 12.294 21.8421 12.1355C21.3505 10.3164 19.7475 9.00032 17.8333 8.82003V7.91671C17.8357 7.7494 17.8045 7.58332 17.7415 7.4283C17.6786 7.27328 17.5851 7.13248 17.4667 7.01424C17.3483 6.896 17.2074 6.80273 17.0523 6.73996C16.8972 6.67719 16.7311 6.64619 16.5638 6.6488ZM1.61587 15.8578C0.924201 15.8411 0.349982 16.3917 0.333315 17.0834C0.316649 17.775 0.867235 18.3411 1.5589 18.3578H1.58332C2.25832 18.3578 2.81665 17.8253 2.83332 17.142C2.84998 16.4503 2.30753 15.8745 1.61587 15.8578ZM2.14809 20.7992C2.06556 20.8076 1.98299 20.8236 1.9007 20.8497C1.24236 21.0497 0.867365 21.7506 1.06736 22.4089C1.23403 22.9506 1.72524 23.2911 2.26691 23.2911C2.38358 23.2911 2.50812 23.2756 2.63312 23.2422C3.29145 23.0339 3.65832 22.3332 3.45832 21.6748C3.28332 21.0988 2.72584 20.7404 2.14809 20.7992ZM4.44139 25.2507C4.20081 25.2579 3.95903 25.3334 3.74966 25.4834C3.19132 25.8918 3.05812 26.6664 3.46645 27.2331C3.70812 27.5664 4.09204 27.7507 4.48371 27.7507C4.73371 27.7507 4.99132 27.6747 5.20799 27.5163C5.76632 27.108 5.89953 26.3333 5.49119 25.7666C5.24119 25.4177 4.84235 25.2387 4.44139 25.2507ZM8.03839 28.7663C7.63711 28.7551 7.23891 28.9379 6.98371 29.292C6.58371 29.8504 6.70838 30.6336 7.27505 31.0336H7.26691C7.49191 31.1919 7.74933 31.2663 7.99933 31.2663C8.38266 31.2663 8.76658 31.092 9.01658 30.7504C9.41658 30.192 9.29171 29.409 8.73338 29.0007C8.52088 28.8507 8.27917 28.7731 8.03839 28.7663ZM12.332 30.9896C11.8476 31.0381 11.414 31.3732 11.2578 31.8669C11.0578 32.5252 11.4247 33.2243 12.083 33.4327C12.208 33.466 12.334 33.4831 12.459 33.4831C12.9923 33.4831 13.4837 33.141 13.6504 32.5993C13.8504 31.941 13.4835 31.2417 12.8252 31.0417C12.6606 30.9896 12.4935 30.9735 12.332 30.9896Z" fill="#F28282"/>
</svg>
