<svg width="38" height="26" viewBox="0 0 38 26" fill="none" xmlns="http://www.w3.org/2000/svg">
<path d="M1.91661 0.833377C1.75097 0.831034 1.58651 0.861636 1.4328 0.923403C1.27909 0.98517 1.13919 1.07687 1.02123 1.19318C0.903267 1.30948 0.809597 1.44807 0.745662 1.60089C0.681728 1.75372 0.648804 1.91772 0.648804 2.08338C0.648804 2.24903 0.681728 2.41304 0.745662 2.56586C0.809597 2.71868 0.903267 2.85727 1.02123 2.97358C1.13919 3.08988 1.27909 3.18158 1.4328 3.24335C1.58651 3.30512 1.75097 3.33572 1.91661 3.33338H14.4166C14.5822 3.33572 14.7467 3.30512 14.9004 3.24335C15.0541 3.18158 15.194 3.08988 15.312 2.97358C15.4299 2.85727 15.5236 2.71868 15.5876 2.56586C15.6515 2.41304 15.6844 2.24903 15.6844 2.08338C15.6844 1.91772 15.6515 1.75372 15.5876 1.60089C15.5236 1.44807 15.4299 1.30948 15.312 1.19318C15.194 1.07687 15.0541 0.98517 14.9004 0.923403C14.7467 0.861636 14.5822 0.831034 14.4166 0.833377H1.91661ZM19.4166 0.833377C19.251 0.831034 19.0865 0.861636 18.9328 0.923403C18.7791 0.98517 18.6392 1.07687 18.5212 1.19318C18.4033 1.30948 18.3096 1.44807 18.2457 1.60089C18.1817 1.75372 18.1488 1.91772 18.1488 2.08338C18.1488 2.24903 18.1817 2.41304 18.2457 2.56586C18.3096 2.71868 18.4033 2.85727 18.5212 2.97358C18.6392 3.08988 18.7791 3.18158 18.9328 3.24335C19.0865 3.30512 19.251 3.33572 19.4166 3.33338H21.9166C22.622 3.33338 23.1666 3.87796 23.1666 4.58338V20H13.8209C13.2714 18.0847 11.4997 16.6667 9.41661 16.6667C7.33349 16.6667 5.5618 18.0847 5.01231 20H4.41661C3.71119 20 3.16661 19.4555 3.16661 18.75V17.0834C3.16901 16.9161 3.1378 16.75 3.07483 16.595C3.01185 16.44 2.91841 16.2991 2.80001 16.1809C2.68162 16.0627 2.5407 15.9694 2.3856 15.9066C2.2305 15.8439 2.06438 15.8129 1.89708 15.8155C1.56584 15.8207 1.2502 15.9571 1.01949 16.1948C0.788774 16.4326 0.661855 16.7521 0.666607 17.0834V18.75C0.666607 20.8063 2.36036 22.5 4.41661 22.5H5.01231C5.5618 24.4154 7.33349 25.8334 9.41661 25.8334C11.4997 25.8334 13.2714 24.4154 13.8209 22.5H24.179C24.7285 24.4154 26.5002 25.8334 28.5833 25.8334C30.6664 25.8334 32.4381 24.4154 32.9876 22.5H33.5833C35.6395 22.5 37.3333 20.8063 37.3333 18.75V13.4473C37.3333 12.9211 37.2223 12.4043 37.011 11.9271L37.0094 11.9255L34.5517 6.3949V6.39327C33.9515 5.04199 32.6039 4.16671 31.1256 4.16671H25.6243C25.4119 2.30556 23.8304 0.833377 21.9166 0.833377H19.4166ZM1.91661 5.83338C1.75097 5.83104 1.58651 5.86164 1.4328 5.9234C1.27909 5.98517 1.13919 6.07687 1.02123 6.19318C0.903267 6.30948 0.809597 6.44807 0.745662 6.60089C0.681728 6.75372 0.648804 6.91772 0.648804 7.08338C0.648804 7.24903 0.681728 7.41304 0.745662 7.56586C0.809597 7.71868 0.903267 7.85727 1.02123 7.97358C1.13919 8.08988 1.27909 8.18158 1.4328 8.24335C1.58651 8.30512 1.75097 8.33572 1.91661 8.33338H11.0833C11.2489 8.33572 11.4134 8.30512 11.5671 8.24335C11.7208 8.18158 11.8607 8.08988 11.9787 7.97358C12.0966 7.85727 12.1903 7.71868 12.2542 7.56586C12.3182 7.41304 12.3511 7.24903 12.3511 7.08338C12.3511 6.91772 12.3182 6.75372 12.2542 6.60089C12.1903 6.44807 12.0966 6.30948 11.9787 6.19318C11.8607 6.07687 11.7208 5.98517 11.5671 5.9234C11.4134 5.86164 11.2489 5.83104 11.0833 5.83338H1.91661ZM25.6666 6.66671H31.1256C31.6235 6.66671 32.0648 6.95427 32.2665 7.4089L33.7883 10.8334H25.6666V6.66671ZM1.91661 10.8334C1.75097 10.831 1.58651 10.8616 1.4328 10.9234C1.27909 10.9852 1.13919 11.0769 1.02123 11.1932C0.903267 11.3095 0.809597 11.4481 0.745662 11.6009C0.681728 11.7537 0.648804 11.9177 0.648804 12.0834C0.648804 12.249 0.681728 12.413 0.745662 12.5659C0.809597 12.7187 0.903267 12.8573 1.02123 12.9736C1.13919 13.0899 1.27909 13.1816 1.4328 13.2434C1.58651 13.3051 1.75097 13.3357 1.91661 13.3334H7.74994C7.91558 13.3357 8.08003 13.3051 8.23374 13.2434C8.38745 13.1816 8.52736 13.0899 8.64532 12.9736C8.76328 12.8573 8.85695 12.7187 8.92088 12.5659C8.98482 12.413 9.01774 12.249 9.01774 12.0834C9.01774 11.9177 8.98482 11.7537 8.92088 11.6009C8.85695 11.4481 8.76328 11.3095 8.64532 11.1932C8.52736 11.0769 8.38745 10.9852 8.23374 10.9234C8.08003 10.8616 7.91558 10.831 7.74994 10.8334H1.91661ZM25.6666 13.3334H34.8219C34.8254 13.3713 34.8333 13.4094 34.8333 13.4473V18.75C34.8333 19.4555 34.2887 20 33.5833 20H32.9876C32.4381 18.0847 30.6664 16.6667 28.5833 16.6667C27.4783 16.6667 26.4613 17.0661 25.6666 17.7263V13.3334ZM9.41661 19.1667C10.5406 19.1667 11.4287 20.0274 11.4885 21.1345C11.4814 21.2114 11.4814 21.2887 11.4885 21.3656C11.4287 22.4727 10.5406 23.3334 9.41661 23.3334C8.29265 23.3334 7.40454 22.4727 7.34467 21.3656C7.3518 21.2887 7.3518 21.2114 7.34467 21.1345C7.40454 20.0274 8.29265 19.1667 9.41661 19.1667ZM28.5833 19.1667C29.7469 19.1667 30.6666 20.0864 30.6666 21.25C30.6666 22.4137 29.7469 23.3334 28.5833 23.3334C27.4196 23.3334 26.4999 22.4137 26.4999 21.25C26.4999 20.0864 27.4196 19.1667 28.5833 19.1667Z" fill="#F28282"/>
</svg>
