<svg width="34" height="32" viewBox="0 0 34 32" fill="none" xmlns="http://www.w3.org/2000/svg">
<path d="M4.91665 0.333374C2.39165 0.333374 0.333313 2.39171 0.333313 4.91671V20.75C0.333313 23.275 2.39165 25.3334 4.91665 25.3334H19.5V23.9336C19.25 23.5836 19.0341 23.2167 18.8424 22.8334H4.91665C3.76665 22.8334 2.83331 21.9 2.83331 20.75V4.91671C2.83331 3.76671 3.76665 2.83337 4.91665 2.83337H29.0833C30.2333 2.83337 31.1666 3.76671 31.1666 4.91671V10.4994C32.1083 10.9827 32.95 11.6161 33.6666 12.3744V4.91671C33.6666 2.39171 31.6083 0.333374 29.0833 0.333374H4.91665ZM8.24998 7.00004C8.08434 6.9977 7.91989 7.0283 7.76618 7.09007C7.61247 7.15183 7.47256 7.24353 7.3546 7.35984C7.23664 7.47615 7.14297 7.61474 7.07904 7.76756C7.0151 7.92038 6.98218 8.08438 6.98218 8.25004C6.98218 8.4157 7.0151 8.5797 7.07904 8.73252C7.14297 8.88534 7.23664 9.02393 7.3546 9.14024C7.47256 9.25654 7.61247 9.34825 7.76618 9.41001C7.91989 9.47178 8.08434 9.50238 8.24998 9.50004H25.75C25.9156 9.50238 26.0801 9.47178 26.2338 9.41001C26.3875 9.34825 26.5274 9.25654 26.6454 9.14024C26.7633 9.02393 26.857 8.88534 26.9209 8.73252C26.9849 8.5797 27.0178 8.4157 27.0178 8.25004C27.0178 8.08438 26.9849 7.92038 26.9209 7.76756C26.857 7.61474 26.7633 7.47615 26.6454 7.35984C26.5274 7.24353 26.3875 7.15183 26.2338 7.09007C26.0801 7.0283 25.9156 6.9977 25.75 7.00004H8.24998ZM27 12C23.3329 12 20.3333 14.9996 20.3333 18.6667C20.3333 20.3452 20.9667 21.8795 22 23.0547V30.75C22 30.9763 22.0615 31.1982 22.1777 31.3923C22.294 31.5864 22.4608 31.7452 22.6602 31.852C22.8597 31.9587 23.0844 32.0093 23.3103 31.9984C23.5363 31.9875 23.7551 31.9155 23.9433 31.7901L27 29.7523L30.0566 31.7901C30.2449 31.9155 30.4637 31.9875 30.6896 31.9984C30.9156 32.0093 31.1403 31.9587 31.3397 31.852C31.5392 31.7452 31.7059 31.5864 31.8222 31.3923C31.9385 31.1982 31.9999 30.9763 32 30.75V23.0547C33.0333 21.8795 33.6666 20.3452 33.6666 18.6667C33.6666 14.9996 30.6671 12 27 12ZM27 14.5C29.316 14.5 31.1666 16.3507 31.1666 18.6667C31.1666 20.9827 29.316 22.8334 27 22.8334C24.684 22.8334 22.8333 20.9827 22.8333 18.6667C22.8333 16.3507 24.684 14.5 27 14.5ZM8.24998 16.1667C8.08434 16.1644 7.91989 16.195 7.76618 16.2567C7.61247 16.3185 7.47256 16.4102 7.3546 16.5265C7.23664 16.6428 7.14297 16.7814 7.07904 16.9342C7.0151 17.087 6.98218 17.251 6.98218 17.4167C6.98218 17.5824 7.0151 17.7464 7.07904 17.8992C7.14297 18.052 7.23664 18.1906 7.3546 18.3069C7.47256 18.4232 7.61247 18.5149 7.76618 18.5767C7.91989 18.6384 8.08434 18.669 8.24998 18.6667H15.75C15.9156 18.669 16.0801 18.6384 16.2338 18.5767C16.3875 18.5149 16.5274 18.4232 16.6454 18.3069C16.7633 18.1906 16.857 18.052 16.9209 17.8992C16.9849 17.7464 17.0178 17.5824 17.0178 17.4167C17.0178 17.251 16.9849 17.087 16.9209 16.9342C16.857 16.7814 16.7633 16.6428 16.6454 16.5265C16.5274 16.4102 16.3875 16.3185 16.2338 16.2567C16.0801 16.195 15.9156 16.1644 15.75 16.1667H8.24998ZM24.5 24.8402C25.2732 25.1557 26.1167 25.3334 27 25.3334C27.8833 25.3334 28.7267 25.1557 29.5 24.8402V28.4144L27.6933 27.21C27.488 27.0731 27.2468 27.0001 27 27.0001C26.7532 27.0001 26.512 27.0731 26.3066 27.21L24.5 28.4144V24.8402Z" fill="#F28282"/>
</svg>
